<?xml version="1.0" standalone="no"?>
<!DOCTYPE svg PUBLIC "-//W3C//DTD SVG 20010904//EN"
 "http://www.w3.org/TR/2001/REC-SVG-20010904/DTD/svg10.dtd">
<svg version="1.0" xmlns="http://www.w3.org/2000/svg"
 width="300.000000pt" height="300.000000pt" viewBox="0 0 300.000000 300.000000"
 preserveAspectRatio="xMidYMid meet">
<metadata>
Created by potrace 1.10, written by Peter Selinger 2001-2011
</metadata>
<g transform="translate(0.000000,300.000000) scale(0.100000,-0.100000)"
fill="#000000" stroke="none">
<path d="M640 1744 l0 -138 132 129 c73 72 134 132 135 135 2 3 -58 6 -132 8
l-135 4 0 -138z m180 92 c0 -15 -131 -136 -141 -130 -14 8 -11 118 3 132 15
15 138 13 138 -2z"/>
<path d="M492 1730 l-123 -130 125 0 126 0 0 130 c0 72 -1 130 -3 130 -1 0
-58 -58 -125 -130z m98 -30 c0 -51 -3 -62 -20 -68 -25 -9 -112 -3 -108 8 8 21
102 120 114 120 10 0 14 -16 14 -60z"/>
<path d="M855 1788 l-40 -41 40 23 c64 38 75 46 68 53 -14 14 -30 6 -68 -35z"/>
<path d="M215 1700 l0 -100 63 0 c58 0 66 3 93 31 l28 30 -62 69 c-49 54 -68
68 -92 69 l-30 1 0 -100z m93 10 c39 -47 40 -66 6 -74 -49 -13 -64 0 -64 53 0
74 11 78 58 21z"/>
<path d="M157 1755 l-28 -25 29 0 c24 0 31 5 34 25 6 31 0 31 -35 0z"/>
<path d="M320 1480 c140 -151 189 -196 194 -179 3 8 23 63 46 123 61 165 74
151 -144 151 l-184 0 88 -95z m225 60 c18 -15 10 -56 -24 -134 l-26 -59 -90
94 -89 94 39 5 c88 11 177 11 190 0z"/>
<path d="M2478 1473 c-15 -4 -18 -16 -18 -79 0 -62 -3 -77 -20 -91 -22 -19
-27 -53 -7 -53 47 0 77 63 77 162 0 60 -4 67 -32 61z"/>
<path d="M587 1445 c-4 -16 -26 -81 -49 -143 -23 -62 -39 -114 -37 -115 2 -2
28 -18 57 -35 52 -32 94 -44 60 -18 -15 11 -18 35 -20 177 -2 103 -6 153 -11
134z"/>
<path d="M770 1450 c-42 -42 -19 -82 59 -107 59 -19 74 -37 42 -48 -26 -8 -28
-45 -3 -45 31 0 62 29 62 59 0 36 -27 60 -86 75 -52 13 -69 34 -35 43 28 7 28
43 1 43 -11 0 -29 -9 -40 -20z"/>
<path d="M850 1455 c0 -22 37 -55 60 -55 27 0 25 16 -5 45 -27 28 -55 33 -55
10z"/>
<path d="M992 1453 c3 -15 16 -18 86 -21 77 -3 82 -2 82 18 0 19 -6 20 -86 20
-76 0 -85 -2 -82 -17z"/>
<path d="M1252 1447 c-51 -55 -49 -134 5 -177 51 -40 76 -8 28 36 -17 16 -25
34 -25 58 0 25 7 40 25 54 14 11 25 27 25 36 0 23 -33 20 -58 -7z"/>
<path d="M1330 1451 c0 -11 9 -22 19 -26 11 -3 22 -12 25 -20 6 -16 42 -20 50
-6 3 5 -7 23 -23 40 -33 35 -71 42 -71 12z"/>
<path d="M1577 1457 c4 -7 40 -57 78 -110 52 -72 76 -96 93 -97 21 0 22 2 22
110 l0 110 -26 0 -26 0 7 -70 c5 -49 4 -70 -4 -70 -6 0 -11 4 -11 8 0 4 -20
36 -45 70 -35 48 -51 62 -71 62 -18 0 -23 -4 -17 -13z"/>
<path d="M1842 1453 c3 -15 16 -18 82 -21 55 -2 82 1 87 10 14 23 -2 28 -87
28 -76 0 -85 -2 -82 -17z"/>
<path d="M2060 1464 c0 -21 44 -64 66 -64 29 0 30 3 2 40 -13 18 -31 30 -45
30 -13 0 -23 -3 -23 -6z"/>
<path d="M2183 1433 c-15 -21 -51 -68 -80 -104 -29 -36 -53 -69 -53 -73 0 -3
11 -6 24 -6 17 0 34 13 54 41 l30 40 28 -40 c22 -31 36 -41 57 -41 32 0 31 3
-20 66 -18 23 -33 45 -33 49 0 4 16 27 35 51 19 23 35 45 35 48 0 3 -11 6 -24
6 -17 0 -34 -12 -53 -37z"/>
<path d="M2311 1386 c4 -73 7 -88 28 -110 14 -14 33 -26 43 -26 25 0 23 36 -2
50 -17 9 -20 21 -20 90 0 79 0 80 -26 80 l-26 0 3 -84z"/>
<path d="M2590 1450 c-42 -42 -19 -82 59 -107 59 -19 74 -37 42 -48 -26 -8
-28 -45 -3 -45 31 0 62 29 62 59 0 36 -27 60 -86 75 -52 13 -69 34 -35 43 28
7 28 43 1 43 -11 0 -29 -9 -40 -20z"/>
<path d="M2670 1455 c0 -22 37 -55 60 -55 27 0 25 16 -5 45 -27 28 -55 33 -55
10z"/>
<path d="M994 1381 c-2 -2 -4 -13 -4 -23 0 -16 9 -18 81 -18 76 0 80 1 77 21
-3 19 -10 21 -76 23 -41 0 -76 -1 -78 -3z"/>
<path d="M1844 1381 c-2 -2 -4 -13 -4 -23 0 -16 9 -18 81 -18 76 0 80 1 77 21
-3 19 -10 21 -76 23 -41 0 -76 -1 -78 -3z"/>
<path d="M745 1308 c13 -45 85 -81 85 -43 0 21 -48 65 -71 65 -16 0 -19 -4
-14 -22z"/>
<path d="M1374 1315 c-3 -8 -14 -17 -25 -20 -20 -7 -27 -45 -9 -45 35 0 80 40
80 71 0 15 -40 10 -46 -6z"/>
<path d="M1577 1323 c-4 -3 -7 -21 -7 -40 0 -29 3 -33 25 -33 23 0 25 4 25 40
0 32 -4 40 -18 40 -10 0 -22 -3 -25 -7z"/>
<path d="M2565 1308 c13 -45 85 -81 85 -43 0 21 -48 65 -71 65 -16 0 -19 -4
-14 -22z"/>
<path d="M994 1291 c-2 -2 -4 -13 -4 -23 0 -16 9 -18 85 -18 81 0 85 1 85 23
0 21 -4 22 -81 22 -44 0 -83 -2 -85 -4z"/>
<path d="M1922 1292 c-72 -2 -83 -5 -80 -20 3 -14 17 -17 84 -20 62 -2 83 1
87 11 10 26 -8 32 -91 29z"/>
</g>
</svg>
