<?xml version="1.0" encoding="UTF-8"?>
<!DOCTYPE svg PUBLIC "-//W3C//DTD SVG 1.1//EN" "http://www.w3.org/Graphics/SVG/1.1/DTD/svg11.dtd">
<svg xmlns="http://www.w3.org/2000/svg" version="1.1" width="500px" height="500px" style="shape-rendering:geometricPrecision; text-rendering:geometricPrecision; image-rendering:optimizeQuality; fill-rule:evenodd; clip-rule:evenodd" xmlns:xlink="http://www.w3.org/1999/xlink">
<g><path style="opacity:0.004" fill="#fefffe" d="M 130.5,3.5 C 131.833,4.16667 131.833,4.16667 130.5,3.5 Z"/></g>
<g><path style="opacity:0.004" fill="#fefffe" d="M 223.5,10.5 C 224.833,11.1667 224.833,11.1667 223.5,10.5 Z"/></g>
<g><path style="opacity:0.004" fill="#fefffe" d="M 26.5,16.5 C 27.8333,17.1667 27.8333,17.1667 26.5,16.5 Z"/></g>
<g><path style="opacity:0.004" fill="#fefffe" d="M 447.5,21.5 C 448.833,22.1667 448.833,22.1667 447.5,21.5 Z"/></g>
<g><path style="opacity:0.004" fill="#fefffe" d="M 304.5,22.5 C 305.833,23.1667 305.833,23.1667 304.5,22.5 Z"/></g>
<g><path style="opacity:0.004" fill="#fefffe" d="M 284.5,24.5 C 285.833,25.1667 285.833,25.1667 284.5,24.5 Z"/></g>
<g><path style="opacity:0.004" fill="#fefffe" d="M 461.5,30.5 C 462.833,31.1667 462.833,31.1667 461.5,30.5 Z"/></g>
<g><path style="opacity:0.004" fill="#fefffe" d="M 188.5,34.5 C 189.833,35.1667 189.833,35.1667 188.5,34.5 Z"/></g>
<g><path style="opacity:0.004" fill="#fefffe" d="M 14.5,44.5 C 15.8333,45.1667 15.8333,45.1667 14.5,44.5 Z"/></g>
<g><path style="opacity:0.004" fill="#fefffe" d="M 19.5,46.5 C 20.8333,47.1667 20.8333,47.1667 19.5,46.5 Z"/></g>
<g><path style="opacity:0.004" fill="#fefffe" d="M 372.5,52.5 C 373.833,53.1667 373.833,53.1667 372.5,52.5 Z"/></g>
<g><path style="opacity:0.004" fill="#fefffe" d="M 322.5,57.5 C 323.833,58.1667 323.833,58.1667 322.5,57.5 Z"/></g>
<g><path style="opacity:0.004" fill="#fefffe" d="M 440.5,68.5 C 441.833,69.1667 441.833,69.1667 440.5,68.5 Z"/></g>
<g><path style="opacity:0.004" fill="#fefffe" d="M 455.5,68.5 C 456.833,69.1667 456.833,69.1667 455.5,68.5 Z"/></g>
<g><path style="opacity:0.004" fill="#fefffe" d="M 444.5,75.5 C 445.833,76.1667 445.833,76.1667 444.5,75.5 Z"/></g>
<g><path style="opacity:0.004" fill="#fefffe" d="M 291.5,90.5 C 292.833,91.1667 292.833,91.1667 291.5,90.5 Z"/></g>
<g><path style="opacity:0.004" fill="#fefffe" d="M 39.5,93.5 C 40.8333,94.1667 40.8333,94.1667 39.5,93.5 Z"/></g>
<g><path style="opacity:0.004" fill="#fefffe" d="M 168.5,95.5 C 169.833,96.1667 169.833,96.1667 168.5,95.5 Z"/></g>
<g><path style="opacity:0.004" fill="#fefffe" d="M 132.5,97.5 C 133.833,98.1667 133.833,98.1667 132.5,97.5 Z"/></g>
<g><path style="opacity:0.004" fill="#fefffe" d="M 231.5,102.5 C 232.833,103.167 232.833,103.167 231.5,102.5 Z"/></g>
<g><path style="opacity:0.004" fill="#fefffe" d="M 304.5,102.5 C 305.833,103.167 305.833,103.167 304.5,102.5 Z"/></g>
<g><path style="opacity:0.004" fill="#fefffe" d="M 293.5,112.5 C 294.833,113.167 294.833,113.167 293.5,112.5 Z"/></g>
<g><path style="opacity:0.004" fill="#fefffe" d="M 210.5,115.5 C 211.833,116.167 211.833,116.167 210.5,115.5 Z"/></g>
<g><path style="opacity:0.004" fill="#fefffe" d="M 367.5,121.5 C 368.833,122.167 368.833,122.167 367.5,121.5 Z"/></g>
<g><path style="opacity:0.004" fill="#fefffe" d="M 215.5,130.5 C 216.833,131.167 216.833,131.167 215.5,130.5 Z"/></g>
<g><path style="opacity:0.004" fill="#fefffe" d="M 5.5,135.5 C 6.83333,136.167 6.83333,136.167 5.5,135.5 Z"/></g>
<g><path style="opacity:0.004" fill="#fefffe" d="M 379.5,135.5 C 380.833,136.167 380.833,136.167 379.5,135.5 Z"/></g>
<g><path style="opacity:0.004" fill="#fefffe" d="M 411.5,138.5 C 412.833,139.167 412.833,139.167 411.5,138.5 Z"/></g>
<g><path style="opacity:0.004" fill="#fefffe" d="M 391.5,144.5 C 392.833,145.167 392.833,145.167 391.5,144.5 Z"/></g>
<g><path style="opacity:0.004" fill="#fefffe" d="M 113.5,145.5 C 114.833,146.167 114.833,146.167 113.5,145.5 Z"/></g>
<g><path style="opacity:0.004" fill="#fefffe" d="M 346.5,147.5 C 347.833,148.167 347.833,148.167 346.5,147.5 Z"/></g>
<g><path style="opacity:0.004" fill="#fefffe" d="M 62.5,155.5 C 63.8333,156.167 63.8333,156.167 62.5,155.5 Z"/></g>
<g><path style="opacity:0.004" fill="#fefffe" d="M 367.5,165.5 C 368.833,166.167 368.833,166.167 367.5,165.5 Z"/></g>
<g><path style="opacity:0.004" fill="#fefffe" d="M 471.5,165.5 C 472.833,166.167 472.833,166.167 471.5,165.5 Z"/></g>
<g><path style="opacity:0.004" fill="#fefffe" d="M 396.5,167.5 C 397.833,168.167 397.833,168.167 396.5,167.5 Z"/></g>
<g><path style="opacity:0.004" fill="#fefffe" d="M 307.5,177.5 C 308.833,178.167 308.833,178.167 307.5,177.5 Z"/></g>
<g><path style="opacity:0.004" fill="#fefffe" d="M 23.5,188.5 C 24.8333,189.167 24.8333,189.167 23.5,188.5 Z"/></g>
<g><path style="opacity:1" fill="#0f88cf" d="M 116.5,221.5 C 114.145,225.855 110.812,229.188 106.5,231.5C 106.577,230.25 107.244,229.417 108.5,229C 107.438,214.91 106.772,200.744 106.5,186.5C 113.532,186.17 120.532,186.503 127.5,187.5C 134.198,189.081 135.032,192.081 130,196.5C 128.667,195.833 127.667,194.833 127,193.5C 126.37,195.903 127.203,197.737 129.5,199C 126.276,200.715 125.942,202.715 128.5,205C 127.767,206.766 127.433,208.599 127.5,210.5C 126.325,210.281 125.325,210.614 124.5,211.5C 122.715,216.124 119.382,218.624 114.5,219C 115.756,219.417 116.423,220.25 116.5,221.5 Z"/></g>
<g><path style="opacity:0.004" fill="#fefffe" d="M 3.5,199.5 C 4.83333,200.167 4.83333,200.167 3.5,199.5 Z"/></g>
<g><path style="opacity:0.004" fill="#fefffe" d="M 63.5,199.5 C 64.8333,200.167 64.8333,200.167 63.5,199.5 Z"/></g>
<g><path style="opacity:1" fill="#1b91d1" d="M 146.5,194.5 C 136.48,203.522 126.48,212.522 116.5,221.5C 116.423,220.25 115.756,219.417 114.5,219C 119.382,218.624 122.715,216.124 124.5,211.5C 125.325,210.614 126.325,210.281 127.5,210.5C 127.433,208.599 127.767,206.766 128.5,205C 125.942,202.715 126.276,200.715 129.5,199C 127.203,197.737 126.37,195.903 127,193.5C 127.667,194.833 128.667,195.833 130,196.5C 135.032,192.081 134.198,189.081 127.5,187.5C 120.532,186.503 113.532,186.17 106.5,186.5C 106.772,200.744 107.438,214.91 108.5,229C 107.244,229.417 106.577,230.25 106.5,231.5C 106.167,231.5 105.833,231.5 105.5,231.5C 105.167,231.5 104.833,231.5 104.5,231.5C 104.5,229.833 104.5,228.167 104.5,226.5C 104.938,226.565 105.272,226.399 105.5,226C 103.881,225.764 102.881,224.931 102.5,223.5C 101.92,219.351 102.586,215.684 104.5,212.5C 105.796,210.266 106.129,201.266 105.5,185.5C 121.201,185.373 136.868,186.04 152.5,187.5C 153.246,188.736 153.579,190.07 153.5,191.5C 150.28,189.993 147.947,190.993 146.5,194.5 Z"/></g>
<g><path style="opacity:0.004" fill="#fefffe" d="M 201.5,203.5 C 202.833,204.167 202.833,204.167 201.5,203.5 Z"/></g>
<g><path style="opacity:0.89" fill="#3ba9df" d="M 146.5,194.5 C 149.205,193.223 151.872,193.39 154.5,195C 155.337,196.011 155.67,197.178 155.5,198.5C 153.692,198.491 152.025,198.991 150.5,200C 145.4,203.299 140.234,206.465 135,209.5C 133.743,209.15 133.409,208.483 134,207.5C 138.447,203.224 142.613,198.891 146.5,194.5 Z"/></g>
<g><path style="opacity:0.004" fill="#fefffe" d="M 463.5,205.5 C 464.833,206.167 464.833,206.167 463.5,205.5 Z"/></g>
<g><path style="opacity:1" fill="#274792" d="M 33.5,205.5 C 38.1785,205.334 42.8452,205.501 47.5,206C 48.009,208.57 49.009,210.903 50.5,213C 49.552,213.483 48.552,213.649 47.5,213.5C 46.9968,217.503 48.3301,220.669 51.5,223C 50.5,223.333 49.5,223.667 48.5,224C 49.7596,225.814 49.7596,227.647 48.5,229.5C 47.7568,228.092 46.9234,226.759 46,225.5C 45.6667,219.833 45.3333,214.167 45,208.5C 43.6439,207.62 42.1439,207.286 40.5,207.5C 39.8485,212.54 41.1818,216.873 44.5,220.5C 40.3737,223.656 40.5403,226.656 45,229.5C 46.0086,231.025 46.5086,232.692 46.5,234.5C 46.1667,234.5 45.8333,234.5 45.5,234.5C 45.44,233.957 45.1067,233.624 44.5,233.5C 43.7348,234.612 42.7348,235.279 41.5,235.5C 41.1583,234.662 40.4916,234.328 39.5,234.5C 38.609,235.11 37.609,235.443 36.5,235.5C 36.1667,234.167 35.8333,234.167 35.5,235.5C 34.0532,234.866 33.3866,233.699 33.5,232C 33.8333,230.333 34.1667,228.667 34.5,227C 33.8202,222.523 33.3202,218.023 33,213.5C 32.6667,214.167 32.3333,214.833 32,215.5C 28.2546,214.703 24.4213,214.203 20.5,214C 19.9781,213.439 19.6448,212.772 19.5,212C 23.1328,208.696 26.4662,205.029 29.5,201C 30.448,200.517 31.448,200.351 32.5,200.5C 32.2155,202.415 32.5489,204.081 33.5,205.5 Z"/></g>
<g><path style="opacity:0.008" fill="#00807f" d="M 54.5,207.5 C 55.8333,208.167 55.8333,208.167 54.5,207.5 Z"/></g>
<g><path style="opacity:1" fill="#1e78be" d="M 104.5,212.5 C 102.586,215.684 101.92,219.351 102.5,223.5C 101.698,222.048 101.198,220.382 101,218.5C 99.5996,220.841 99.0996,223.174 99.5,225.5C 97.4902,223.829 95.1569,223.162 92.5,223.5C 93.9697,220.682 94.9697,217.682 95.5,214.5C 94.448,214.351 93.448,214.517 92.5,215C 91.8801,217.212 90.7134,219.046 89,220.5C 87.1667,220 86,218.833 85.5,217C 87.9685,214.858 90.1351,212.358 92,209.5C 92.3333,209.833 92.6667,210.167 93,210.5C 92.7191,207.943 92.8858,205.276 93.5,202.5C 92.0413,202.567 90.7079,202.234 89.5,201.5C 93.8518,196.649 98.3518,191.982 103,187.5C 104.053,195.802 104.553,204.135 104.5,212.5 Z"/></g>
<g><path style="opacity:1" fill="#265199" d="M 54.5,208.5 C 59.0563,212.888 63.0563,217.721 66.5,223C 63.3439,226.989 60.0106,230.823 56.5,234.5C 53.1667,234.5 49.8333,234.5 46.5,234.5C 46.5086,232.692 46.0086,231.025 45,229.5C 40.5403,226.656 40.3737,223.656 44.5,220.5C 41.1818,216.873 39.8485,212.54 40.5,207.5C 42.1439,207.286 43.6439,207.62 45,208.5C 45.3333,214.167 45.6667,219.833 46,225.5C 46.9234,226.759 47.7568,228.092 48.5,229.5C 49.7596,227.647 49.7596,225.814 48.5,224C 49.5,223.667 50.5,223.333 51.5,223C 48.3301,220.669 46.9968,217.503 47.5,213.5C 48.552,213.649 49.552,213.483 50.5,213C 49.009,210.903 48.009,208.57 47.5,206C 42.8452,205.501 38.1785,205.334 33.5,205.5C 33.933,202.834 34.433,200.168 35,197.5C 38.4106,198.293 41.9106,198.793 45.5,199C 47.7319,201.735 50.3986,203.902 53.5,205.5C 52.2232,206.922 52.5565,207.922 54.5,208.5 Z"/></g>
<g><path style="opacity:1" fill="#1b6eb6" d="M 89.5,201.5 C 90.7079,202.234 92.0413,202.567 93.5,202.5C 92.8858,205.276 92.7191,207.943 93,210.5C 92.6667,210.167 92.3333,209.833 92,209.5C 90.1351,212.358 87.9685,214.858 85.5,217C 86,218.833 87.1667,220 89,220.5C 90.7134,219.046 91.8801,217.212 92.5,215C 93.448,214.517 94.448,214.351 95.5,214.5C 94.9697,217.682 93.9697,220.682 92.5,223.5C 95.1569,223.162 97.4902,223.829 99.5,225.5C 99.0996,223.174 99.5996,220.841 101,218.5C 101.198,220.382 101.698,222.048 102.5,223.5C 102.881,224.931 103.881,225.764 105.5,226C 105.272,226.399 104.938,226.565 104.5,226.5C 103.167,228.167 103.167,229.833 104.5,231.5C 104.833,231.5 105.167,231.5 105.5,231.5C 105.167,232.5 104.5,233.167 103.5,233.5C 102.735,233.077 101.902,232.743 101,232.5C 88.3593,233.139 75.8593,233.806 63.5,234.5C 62.0783,234.291 60.745,233.791 59.5,233C 69.3667,222.302 79.3667,211.802 89.5,201.5 Z"/></g>
<g><path style="opacity:0.004" fill="#fefffe" d="M 414.5,231.5 C 415.833,232.167 415.833,232.167 414.5,231.5 Z"/></g>
<g><path style="opacity:0.004" fill="#fefffe" d="M 227.5,232.5 C 228.833,233.167 228.833,233.167 227.5,232.5 Z"/></g>
<g><path style="opacity:0.004" fill="#fefffe" d="M 178.5,233.5 C 179.833,234.167 179.833,234.167 178.5,233.5 Z"/></g>
<g><path style="opacity:0.004" fill="#fefffe" d="M 294.5,233.5 C 295.833,234.167 295.833,234.167 294.5,233.5 Z"/></g>
<g><path style="opacity:0.004" fill="#fefffe" d="M 140.5,234.5 C 141.833,235.167 141.833,235.167 140.5,234.5 Z"/></g>
<g><path style="opacity:0.004" fill="#fefffe" d="M 141.5,236.5 C 142.833,237.167 142.833,237.167 141.5,236.5 Z"/></g>
<g><path style="opacity:0.004" fill="#fefffe" d="M 398.5,243.5 C 399.833,244.167 399.833,244.167 398.5,243.5 Z"/></g>
<g><path style="opacity:1" fill="#215ea6" d="M 45.5,234.5 C 46.9187,235.451 48.5853,235.784 50.5,235.5C 51.6085,236.29 52.9419,236.79 54.5,237C 62.8267,237.5 71.16,237.666 79.5,237.5C 80.2196,239.862 79.553,242.029 77.5,244C 78.3081,244.308 78.9747,244.808 79.5,245.5C 78.2084,249.43 77.5417,253.264 77.5,257C 78.2718,258.221 79.2718,259.221 80.5,260C 79.7865,261.343 80.1198,262.676 81.5,264C 80.8095,265.067 80.3095,266.234 80,267.5C 79.6924,266.692 79.1924,266.025 78.5,265.5C 77.5713,266.689 77.238,268.022 77.5,269.5C 75.2166,269.608 73.2166,270.441 71.5,272C 72.8228,272.816 73.4894,273.983 73.5,275.5C 60.4403,262.443 47.7736,249.11 35.5,235.5C 35.8333,235.5 36.1667,235.5 36.5,235.5C 37.609,235.443 38.609,235.11 39.5,234.5C 39.8417,235.338 40.5084,235.672 41.5,235.5C 42.7348,235.279 43.7348,234.612 44.5,233.5C 45.1067,233.624 45.44,233.957 45.5,234.5 Z"/></g>
<g><path style="opacity:1" fill="#1b6eb7" d="M 79.5,237.5 C 85.8333,237.5 92.1667,237.5 98.5,237.5C 98.8902,241.394 98.2235,245.06 96.5,248.5C 95.0623,246.002 95.3956,243.836 97.5,242C 96.3333,241.5 95.5,240.667 95,239.5C 93.3005,240.406 91.4672,240.739 89.5,240.5C 88.7768,246.376 88.9434,252.376 90,258.5C 90.7183,255.766 92.2183,255.1 94.5,256.5C 93.6518,258.409 93.3184,260.409 93.5,262.5C 90.8101,265.569 89.4767,269.236 89.5,273.5C 88.8505,275.435 88.5172,277.435 88.5,279.5C 87.6618,279.842 87.3284,280.508 87.5,281.5C 86.596,282.209 86.2627,283.209 86.5,284.5C 85.5267,285.984 84.1933,286.484 82.5,286C 79.6645,282.333 76.6645,278.833 73.5,275.5C 73.4894,273.983 72.8228,272.816 71.5,272C 73.2166,270.441 75.2166,269.608 77.5,269.5C 77.238,268.022 77.5713,266.689 78.5,265.5C 79.1924,266.025 79.6924,266.692 80,267.5C 80.3095,266.234 80.8095,265.067 81.5,264C 80.1198,262.676 79.7865,261.343 80.5,260C 79.2718,259.221 78.2718,258.221 77.5,257C 77.5417,253.264 78.2084,249.43 79.5,245.5C 78.9747,244.808 78.3081,244.308 77.5,244C 79.553,242.029 80.2196,239.862 79.5,237.5 Z"/></g>
<g><path style="opacity:0.315" fill="#060606" d="M 164.5,252.5 C 166.275,252.021 168.109,251.687 170,251.5C 171.22,252.388 172.553,253.055 174,253.5C 179.197,252.915 184.363,252.248 189.5,251.5C 196.548,253.478 197.881,257.312 193.5,263C 184.167,263.667 174.833,263.667 165.5,263C 163.046,262.057 162.046,260.224 162.5,257.5C 162.667,256.167 162.833,254.833 163,253.5C 163.914,254.654 164.747,254.487 165.5,253C 165.272,252.601 164.938,252.435 164.5,252.5 Z"/></g>
<g><path style="opacity:0.25" fill="#050505" d="M 308.5,251.5 C 316.777,253.764 325.11,253.764 333.5,251.5C 338.378,254.934 338.711,258.767 334.5,263C 325.167,263.667 315.833,263.667 306.5,263C 304.522,260.503 304.022,257.669 305,254.5C 306.518,253.837 307.685,252.837 308.5,251.5 Z"/></g>
<g><path style="opacity:0.272" fill="#060606" d="M 385.5,251.5 C 388.415,251.331 391.248,252.331 394,254.5C 394.098,262.577 394.765,270.577 396,278.5C 398.352,282.272 401.519,283.605 405.5,282.5C 407.197,279.605 408.197,276.439 408.5,273C 407.279,269.602 407.279,266.435 408.5,263.5C 404.895,257.054 406.562,253.054 413.5,251.5C 415.693,251.864 417.527,252.864 419,254.5C 419.667,263.167 419.667,271.833 419,280.5C 413.91,292.293 405.077,296.459 392.5,293C 388.183,290.685 385.35,287.185 384,282.5C 383.333,272.833 383.333,263.167 384,253.5C 384.717,252.956 385.217,252.289 385.5,251.5 Z"/></g>
<g><path style="opacity:0.869" fill="#08080b" d="M 151.5,271.5 C 149.482,270.377 147.482,270.377 145.5,271.5C 144.824,270.398 144.158,269.398 143.5,268.5C 143.705,265.941 142.372,263.941 139.5,262.5C 138.692,262.808 138.025,263.308 137.5,264C 138.774,264.977 138.774,265.811 137.5,266.5C 133.92,265.43 130.42,264.097 127,262.5C 125.862,262.989 124.695,263.322 123.5,263.5C 123.586,262.504 123.252,261.671 122.5,261C 126.237,256.439 130.237,253.272 134.5,251.5C 136.703,251.587 138.87,251.587 141,251.5C 142.705,252.763 144.372,253.097 146,252.5C 147.067,253.191 148.234,253.691 149.5,254C 151,256.833 153.167,259 156,260.5C 157.208,265.403 155.708,269.07 151.5,271.5 Z"/></g>
<g><path style="opacity:1" fill="#080709" d="M 437.5,253.5 C 440.734,253.237 442.068,254.737 441.5,258C 441.275,261.118 439.608,262.952 436.5,263.5C 435.518,264.141 434.518,264.807 433.5,265.5C 433.06,264.302 432.727,263.135 432.5,262C 433.984,260.426 435.651,259.093 437.5,258C 434.839,257.938 432.505,258.938 430.5,261C 430.894,263.251 431.394,265.751 432,268.5C 432.833,269.333 433.667,270.167 434.5,271C 437.835,271.768 441.001,272.934 444,274.5C 444.333,274.167 444.667,273.833 445,273.5C 446.833,275.833 448.667,278.167 450.5,280.5C 449.717,282.288 448.384,283.288 446.5,283.5C 445.766,282.292 445.433,280.959 445.5,279.5C 443.105,278.637 440.771,278.637 438.5,279.5C 439.193,280.518 439.859,281.518 440.5,282.5C 439.167,282.833 439.167,283.167 440.5,283.5C 442.118,286.822 441.785,289.822 439.5,292.5C 435.368,291.517 431.702,289.684 428.5,287C 428.833,286.667 429.167,286.333 429.5,286C 426.98,283.792 425.98,281.292 426.5,278.5C 427.23,276.955 428.563,276.122 430.5,276C 426.943,272.622 425.443,268.455 426,263.5C 427.484,259.868 429.484,256.534 432,253.5C 433.626,253.854 435.459,253.854 437.5,253.5 Z"/></g>
<g><path style="opacity:0.047" fill="#030304" d="M 425.5,278.5 C 425.833,278.5 426.167,278.5 426.5,278.5C 425.98,281.292 426.98,283.792 429.5,286C 429.167,286.333 428.833,286.667 428.5,287C 431.702,289.684 435.368,291.517 439.5,292.5C 441.785,289.822 442.118,286.822 440.5,283.5C 440.5,283.167 440.5,282.833 440.5,282.5C 441.778,282.782 442.778,283.449 443.5,284.5C 441.754,291.915 444.421,294.082 451.5,291C 452.833,290.333 453.833,289.333 454.5,288C 453.167,287.333 453.167,286.667 454.5,286C 455.825,286.148 456.992,285.982 458,285.5C 460.487,279.921 458.987,275.087 453.5,271C 447.962,268.967 442.628,267.3 437.5,266C 436.748,265.329 436.414,264.496 436.5,263.5C 439.608,262.952 441.275,261.118 441.5,258C 442.068,254.737 440.734,253.237 437.5,253.5C 437.389,252.883 437.056,252.383 436.5,252C 444.671,250.34 451.837,252.507 458,258.5C 460.692,262.742 460.525,267.075 457.5,271.5C 462.889,279.345 461.555,286.178 453.5,292C 446.916,293.544 440.249,293.877 433.5,293C 427.325,289.891 424.658,285.058 425.5,278.5 Z M 443.5,261.5 C 445.3,262.895 445.634,264.561 444.5,266.5C 441.075,265.249 440.742,263.582 443.5,261.5 Z M 446.5,283.5 C 445.209,283.263 444.209,283.596 443.5,284.5C 442.778,283.449 441.778,282.782 440.5,282.5C 439.859,281.518 439.193,280.518 438.5,279.5C 440.771,278.637 443.105,278.637 445.5,279.5C 445.433,280.959 445.766,282.292 446.5,283.5 Z"/></g>
<g><path style="opacity:1" fill="#050505" d="M 280.5,284.5 C 272.39,275.764 265.39,266.264 259.5,256C 259.439,254.289 260.106,252.956 261.5,252C 265.452,251.088 269.119,251.755 272.5,254C 275.629,258.96 279.296,263.46 283.5,267.5C 284.946,266.829 285.612,265.662 285.5,264C 284.545,260.529 284.378,257.029 285,253.5C 288.465,250.872 291.965,250.872 295.5,253.5C 296.155,263.364 296.822,273.197 297.5,283C 298.585,291.582 294.918,294.915 286.5,293C 283.477,290.823 281.477,287.989 280.5,284.5 Z"/></g>
<g><path style="opacity:0.967" fill="#0f0f0f" d="M 280.5,284.5 C 280.489,282.983 279.823,281.816 278.5,281C 278.833,280.667 279.167,280.333 279.5,280C 272.131,272.73 266.131,264.563 261.5,255.5C 262.242,254.713 263.075,254.047 264,253.5C 265.66,253.324 267.326,253.991 269,255.5C 269.333,255.167 269.667,254.833 270,254.5C 271.333,255.833 272.667,257.167 274,258.5C 278.832,264.968 283.166,271.635 287,278.5C 289.332,274.165 289.832,269.498 288.5,264.5C 288.833,262.167 289.167,259.833 289.5,257.5C 290.086,257.291 290.586,256.957 291,256.5C 291.3,265.585 291.466,274.585 291.5,283.5C 291.954,286.224 290.954,288.057 288.5,289C 292.386,289.579 292.386,290.412 288.5,291.5C 285.616,289.376 282.949,287.042 280.5,284.5 Z"/></g>
<g><path style="opacity:0.929" fill="#0e0e0f" d="M 436.5,263.5 C 436.414,264.496 436.748,265.329 437.5,266C 442.628,267.3 447.962,268.967 453.5,271C 458.987,275.087 460.487,279.921 458,285.5C 456.992,285.982 455.825,286.148 454.5,286C 453.167,286.667 453.167,287.333 454.5,288C 453.833,289.333 452.833,290.333 451.5,291C 444.421,294.082 441.754,291.915 443.5,284.5C 444.209,283.596 445.209,283.263 446.5,283.5C 448.384,283.288 449.717,282.288 450.5,280.5C 448.667,278.167 446.833,275.833 445,273.5C 444.667,273.833 444.333,274.167 444,274.5C 441.001,272.934 437.835,271.768 434.5,271C 433.667,270.167 432.833,269.333 432,268.5C 431.394,265.751 430.894,263.251 430.5,261C 432.505,258.938 434.839,257.938 437.5,258C 435.651,259.093 433.984,260.426 432.5,262C 432.727,263.135 433.06,264.302 433.5,265.5C 434.518,264.807 435.518,264.141 436.5,263.5 Z"/></g>
<g><path style="opacity:0.855" fill="#080809" d="M 343.5,251.5 C 345.086,252.413 346.586,252.413 348,251.5C 352.618,254.45 356.952,257.784 361,261.5C 363.59,254.529 368.423,251.362 375.5,252C 378.006,253.516 378.84,255.682 378,258.5C 374.118,262.714 370.618,267.214 367.5,272C 370.562,277.73 374.396,282.897 379,287.5C 379.825,289.701 379.325,291.534 377.5,293C 374.167,293.667 370.833,293.667 367.5,293C 365.273,290.436 363.439,287.603 362,284.5C 360.612,283.446 359.112,283.28 357.5,284C 355.205,287.297 352.538,290.297 349.5,293C 345.213,294.029 341.38,293.195 338,290.5C 337.097,291.701 335.931,292.535 334.5,293C 325.167,293.667 315.833,293.667 306.5,293C 304.029,290.046 304.029,287.046 306.5,284C 314.513,282.829 322.513,282.663 330.5,283.5C 331.672,283.081 332.672,282.415 333.5,281.5C 335.428,283.05 337.261,284.717 339,286.5C 341.664,285.919 343.998,284.253 346,281.5C 347.093,278.414 348.926,275.914 351.5,274C 350.359,273.259 350.359,272.425 351.5,271.5C 347.839,266.999 344.339,262.332 341,257.5C 340.333,256.5 340.333,255.5 341,254.5C 342.045,253.627 342.878,252.627 343.5,251.5 Z"/></g>
<g><path style="opacity:0.004" fill="#fefffe" d="M 104.5,261.5 C 105.833,262.167 105.833,262.167 104.5,261.5 Z"/></g>
<g><path style="opacity:0.004" fill="#fefffe" d="M 15.5,262.5 C 16.8333,263.167 16.8333,263.167 15.5,262.5 Z"/></g>
<g><path style="opacity:0.008" fill="#000000" d="M 188.5,264.5 C 189.833,265.167 189.833,265.167 188.5,264.5 Z"/></g>
<g><path style="opacity:0.004" fill="#000000" d="M 329.5,264.5 C 330.833,265.167 330.833,265.167 329.5,264.5 Z"/></g>
<g><path style="opacity:0.901" fill="#080808" d="M 214.5,251.5 C 216.677,251.586 218.677,252.253 220.5,253.5C 221.167,252.833 221.833,252.167 222.5,251.5C 230.617,253.291 236.283,257.958 239.5,265.5C 237.289,270.663 233.622,271.83 228.5,269C 220.521,259.808 214.854,261.141 211.5,273C 211.951,275.568 212.951,277.902 214.5,280C 214.167,280.333 213.833,280.667 213.5,281C 216.509,280.84 218.675,282.007 220,284.5C 223.368,282.587 226.201,280.087 228.5,277C 231.882,276.176 235.216,276.343 238.5,277.5C 239.762,279.575 239.595,281.575 238,283.5C 234.749,287.422 230.916,290.588 226.5,293C 221.833,293.667 217.167,293.667 212.5,293C 207.43,290.386 203.597,286.552 201,281.5C 200.675,276.054 200.508,270.721 200.5,265.5C 203.894,258.767 208.561,254.101 214.5,251.5 Z"/></g>
<g><path style="opacity:0.004" fill="#fefffe" d="M 461.5,266.5 C 462.833,267.167 462.833,267.167 461.5,266.5 Z"/></g>
<g><path style="opacity:1" fill="#2175b8" d="M 103.5,233.5 C 103.306,235.912 101.973,236.912 99.5,236.5C 99.9721,253.418 99.9721,270.418 99.5,287.5C 97.0901,287.921 95.2568,289.254 94,291.5C 93.6948,289.443 93.6948,287.443 94,285.5C 91.846,284.77 89.6794,284.103 87.5,283.5C 87.5,282.833 87.5,282.167 87.5,281.5C 88.3382,281.158 88.6716,280.492 88.5,279.5C 90.4611,277.68 90.7944,275.68 89.5,273.5C 89.4767,269.236 90.8101,265.569 93.5,262.5C 93.3184,260.409 93.6518,258.409 94.5,256.5C 92.2183,255.1 90.7183,255.766 90,258.5C 88.9434,252.376 88.7768,246.376 89.5,240.5C 91.4672,240.739 93.3005,240.406 95,239.5C 95.5,240.667 96.3333,241.5 97.5,242C 95.3956,243.836 95.0623,246.002 96.5,248.5C 98.2235,245.06 98.8902,241.394 98.5,237.5C 92.1667,237.5 85.8333,237.5 79.5,237.5C 71.16,237.666 62.8267,237.5 54.5,237C 52.9419,236.79 51.6085,236.29 50.5,235.5C 52.7354,235.795 54.7354,235.461 56.5,234.5C 107.975,235.281 110.308,235.281 63.5,234.5C 75.8593,233.806 88.3593,233.139 101,232.5C 101.902,232.743 102.735,233.077 103.5,233.5 Z M 92.5,267.5 C 92.5086,269.308 92.0086,270.975 91,272.5C 90.4014,270.465 90.9014,268.799 92.5,267.5 Z M 93.5,262.5 C 93.8333,262.5 94.1667,262.5 94.5,262.5C 94.5979,264.553 93.9313,266.22 92.5,267.5C 92.6287,265.784 92.962,264.117 93.5,262.5 Z"/></g>
<g><path style="opacity:0.899" fill="#0b0b0c" d="M 137.5,266.5 C 139.302,267.458 141.302,268.125 143.5,268.5C 144.158,269.398 144.824,270.398 145.5,271.5C 147.482,270.377 149.482,270.377 151.5,271.5C 153.084,273.422 154.918,275.089 157,276.5C 158.493,284.676 155.326,290.176 147.5,293C 142.5,292.333 137.5,292.333 132.5,293C 125.019,290.876 121.519,286.043 122,278.5C 123.491,276.996 125.324,276.163 127.5,276C 126.37,273.572 124.87,271.405 123,269.5C 122.322,267.402 122.489,265.402 123.5,263.5C 124.695,263.322 125.862,262.989 127,262.5C 130.42,264.097 133.92,265.43 137.5,266.5 Z M 134.5,279.5 C 136.662,278.583 138.995,278.583 141.5,279.5C 141.872,282.022 141.039,284.022 139,285.5C 138.383,284.551 138.549,283.718 139.5,283C 137.416,282.303 135.749,281.136 134.5,279.5 Z"/></g>
<g><path style="opacity:1" fill="#090909" d="M 165.5,267.5 C 174.192,267.169 182.859,267.502 191.5,268.5C 195.052,274.028 193.719,277.695 187.5,279.5C 179.862,278.731 172.195,278.231 164.5,278C 161.711,274.225 162.045,270.725 165.5,267.5 Z"/></g>
<g><path style="opacity:0.004" fill="#fefffe" d="M 259.5,272.5 C 260.833,273.167 260.833,273.167 259.5,272.5 Z"/></g>
<g><path style="opacity:0.924" fill="#0a0a09" d="M 307.5,267.5 C 315.84,267.334 324.173,267.5 332.5,268C 336.092,270.971 336.425,274.304 333.5,278C 332.271,278.781 330.938,279.281 329.5,279.5C 322.172,278.525 314.839,278.358 307.5,279C 303.649,275.188 303.649,271.354 307.5,267.5 Z"/></g>
<g><path style="opacity:0.004" fill="#000000" d="M 425.5,278.5 C 424.833,277.167 424.833,277.167 425.5,278.5 Z"/></g>
<g><path style="opacity:0.004" fill="#fefffe" d="M 299.5,279.5 C 300.833,280.167 300.833,280.167 299.5,279.5 Z"/></g>
<g><path style="opacity:0.999" fill="#080808" d="M 261.5,275.5 C 265.139,275.11 268.305,276.11 271,278.5C 271.667,282.5 271.667,286.5 271,290.5C 266.765,294.596 262.931,294.43 259.5,290C 261.211,288.867 261.711,287.367 261,285.5C 260.667,286.167 260.333,286.833 260,287.5C 260.135,284.246 259.969,281.08 259.5,278C 260.381,277.292 261.047,276.458 261.5,275.5 Z"/></g>
<g><path style="opacity:0.007" fill="#000000" d="M 308.5,280.5 C 312.243,280.459 312.41,281.126 309,282.5C 308.536,281.906 308.369,281.239 308.5,280.5 Z"/></g>
<g><path style="opacity:0.004" fill="#000000" d="M 192.5,281.5 C 193.833,282.167 193.833,282.167 192.5,281.5 Z"/></g>
<g><path style="opacity:0.884" fill="#080808" d="M 192.5,282.5 C 197.246,285.573 197.579,289.073 193.5,293C 184.828,292.295 176.328,292.462 168,293.5C 162.435,292.151 161.268,289.151 164.5,284.5C 173.909,283.33 183.243,282.663 192.5,282.5 Z"/></g>
<g><path style="opacity:1" fill="#1975bc" d="M 87.5,283.5 C 89.6794,284.103 91.846,284.77 94,285.5C 93.6948,287.443 93.6948,289.443 94,291.5C 95.2568,289.254 97.0901,287.921 99.5,287.5C 99.5,294.833 99.5,302.167 99.5,309.5C 100.833,309.5 102.167,309.5 103.5,309.5C 103.5,310.833 103.5,312.167 103.5,313.5C 96.0383,310.519 88.8717,306.852 82,302.5C 82.7633,296.365 84.2633,290.365 86.5,284.5C 87.1667,284.5 87.5,284.167 87.5,283.5 Z"/></g>
<g><path style="opacity:0.004" fill="#fefffe" d="M 15.5,299.5 C 16.8333,300.167 16.8333,300.167 15.5,299.5 Z"/></g>
<g><path style="opacity:0.004" fill="#fefffe" d="M 313.5,303.5 C 314.833,304.167 314.833,304.167 313.5,303.5 Z"/></g>
<g><path style="opacity:0.004" fill="#fefffe" d="M 183.5,310.5 C 184.833,311.167 184.833,311.167 183.5,310.5 Z"/></g>
<g><path style="opacity:0.004" fill="#fefffe" d="M 2.5,317.5 C 3.83333,318.167 3.83333,318.167 2.5,317.5 Z"/></g>
<g><path style="opacity:0.004" fill="#fefffe" d="M 407.5,330.5 C 408.833,331.167 408.833,331.167 407.5,330.5 Z"/></g>
<g><path style="opacity:0.004" fill="#fefffe" d="M 465.5,330.5 C 466.833,331.167 466.833,331.167 465.5,330.5 Z"/></g>
<g><path style="opacity:0.004" fill="#fefffe" d="M 443.5,332.5 C 444.833,333.167 444.833,333.167 443.5,332.5 Z"/></g>
<g><path style="opacity:0.004" fill="#fefffe" d="M 275.5,334.5 C 276.833,335.167 276.833,335.167 275.5,334.5 Z"/></g>
<g><path style="opacity:0.004" fill="#fefffe" d="M 277.5,335.5 C 278.833,336.167 278.833,336.167 277.5,335.5 Z"/></g>
<g><path style="opacity:0.004" fill="#fefffe" d="M 322.5,343.5 C 323.833,344.167 323.833,344.167 322.5,343.5 Z"/></g>
<g><path style="opacity:0.004" fill="#fefffe" d="M 209.5,352.5 C 210.833,353.167 210.833,353.167 209.5,352.5 Z"/></g>
<g><path style="opacity:0.004" fill="#fefffe" d="M 412.5,358.5 C 413.833,359.167 413.833,359.167 412.5,358.5 Z"/></g>
<g><path style="opacity:0.004" fill="#fefffe" d="M 367.5,366.5 C 368.833,367.167 368.833,367.167 367.5,366.5 Z"/></g>
<g><path style="opacity:0.004" fill="#fefffe" d="M 455.5,367.5 C 456.833,368.167 456.833,368.167 455.5,367.5 Z"/></g>
<g><path style="opacity:0.004" fill="#fefffe" d="M 480.5,374.5 C 481.833,375.167 481.833,375.167 480.5,374.5 Z"/></g>
<g><path style="opacity:0.004" fill="#fefffe" d="M 115.5,379.5 C 116.833,380.167 116.833,380.167 115.5,379.5 Z"/></g>
<g><path style="opacity:0.004" fill="#fefffe" d="M 301.5,380.5 C 302.833,381.167 302.833,381.167 301.5,380.5 Z"/></g>
<g><path style="opacity:0.004" fill="#fefffe" d="M 414.5,380.5 C 415.833,381.167 415.833,381.167 414.5,380.5 Z"/></g>
<g><path style="opacity:0.004" fill="#fefffe" d="M 57.5,381.5 C 58.8333,382.167 58.8333,382.167 57.5,381.5 Z"/></g>
<g><path style="opacity:0.004" fill="#fefffe" d="M 49.5,390.5 C 50.8333,391.167 50.8333,391.167 49.5,390.5 Z"/></g>
<g><path style="opacity:0.004" fill="#fefffe" d="M 300.5,393.5 C 301.833,394.167 301.833,394.167 300.5,393.5 Z"/></g>
<g><path style="opacity:0.004" fill="#fefffe" d="M 7.5,399.5 C 8.83333,400.167 8.83333,400.167 7.5,399.5 Z"/></g>
<g><path style="opacity:0.004" fill="#fefffe" d="M 206.5,400.5 C 207.833,401.167 207.833,401.167 206.5,400.5 Z"/></g>
<g><path style="opacity:0.004" fill="#fefffe" d="M 427.5,413.5 C 427.897,412.475 428.563,412.308 429.5,413C 428.906,413.464 428.239,413.631 427.5,413.5 Z"/></g>
<g><path style="opacity:0.004" fill="#fefffe" d="M 482.5,414.5 C 483.833,415.167 483.833,415.167 482.5,414.5 Z"/></g>
<g><path style="opacity:0.004" fill="#fefffe" d="M 94.5,420.5 C 95.8333,421.167 95.8333,421.167 94.5,420.5 Z"/></g>
<g><path style="opacity:0.004" fill="#fefffe" d="M 227.5,433.5 C 228.833,434.167 228.833,434.167 227.5,433.5 Z"/></g>
<g><path style="opacity:0.004" fill="#fefffe" d="M 494.5,442.5 C 495.833,443.167 495.833,443.167 494.5,442.5 Z"/></g>
<g><path style="opacity:0.004" fill="#fefffe" d="M 177.5,449.5 C 178.833,450.167 178.833,450.167 177.5,449.5 Z"/></g>
<g><path style="opacity:0.004" fill="#fefffe" d="M 398.5,451.5 C 399.833,452.167 399.833,452.167 398.5,451.5 Z"/></g>
<g><path style="opacity:0.004" fill="#fefffe" d="M 455.5,465.5 C 456.833,466.167 456.833,466.167 455.5,465.5 Z"/></g>
<g><path style="opacity:0.004" fill="#fefffe" d="M 187.5,470.5 C 188.833,471.167 188.833,471.167 187.5,470.5 Z"/></g>
<g><path style="opacity:0.004" fill="#fefffe" d="M 144.5,477.5 C 145.833,478.167 145.833,478.167 144.5,477.5 Z"/></g>
<g><path style="opacity:0.004" fill="#fefffe" d="M 98.5,487.5 C 99.8333,488.167 99.8333,488.167 98.5,487.5 Z"/></g>
</svg>
